<?xml version="1.0" encoding="UTF-8" standalone="no"?>
<svg
   xmlns:dc="http://purl.org/dc/elements/1.1/"
   xmlns:cc="http://creativecommons.org/ns#"
   xmlns:rdf="http://www.w3.org/1999/02/22-rdf-syntax-ns#"
   xmlns:svg="http://www.w3.org/2000/svg"
   xmlns="http://www.w3.org/2000/svg"
   width="100%"
   height="100%"
   viewBox="0 0 64 64"
   version="1.1"
   xml:space="preserve"
   style="fill-rule:evenodd;clip-rule:evenodd;stroke-linecap:round;stroke-linejoin:round;stroke-miterlimit:2;"
   >

  
  <circle
   cx="32"
   cy="32"
   r="12"
   style="fill:none;stroke:white;stroke-width:1.5px;"
   />

  <path
   d="M39.682,35.636c-1.032,2.176 -2.976,3.903 -5.482,4.574"
   style="fill:none;stroke:white;stroke-width:1.5px;"
   />

  <path
   d="M32,16l0,-8"
   style="fill:none;stroke:white;stroke-width:1.5px;"
   />

  <path
   d="M40.907,16.572l2.186,-3.785"
   style="fill:none;stroke:white;stroke-width:1.5px;"
   />

  <path
   d="M48.214,23.546l3.785,-2.185"
   style="fill:none;stroke:white;stroke-width:1.5px;"
   />

  <path
   d="M48,32l8,0"
   style="fill:none;stroke:white;stroke-width:1.5px;"
   />

  <path
   d="M49,41.815l3.785,2.185"
   style="fill:none;stroke:white;stroke-width:1.5px;"
   />

  <path
   d="M42.269,48.214l2.185,3.785"
   style="fill:none;stroke:white;stroke-width:1.5px;"
   />

  <path
   d="M32,48l0,8"
   style="fill:none;stroke:white;stroke-width:1.5px;"
   />

  <path
   d="M23.093,47.428l-2.186,3.785"
   style="fill:none;stroke:white;stroke-width:1.5px;"
   />

  <path
   d="M17.358,41.361l-3.785,2.185"
   style="fill:none;stroke:white;stroke-width:1.5px;"
   />

  <path
   d="M16,32l-8,0"
   style="fill:none;stroke:white;stroke-width:1.5px;"
   />

  <path
   d="M18.144,24l-3.785,-2.185"
   style="fill:none;stroke:white;stroke-width:1.5px;"
   />

  <path
   d="M24.454,17.358l-2.185,-3.785"
   style="fill:none;stroke:white;stroke-width:1.5px;"
   />

</svg>
